<svg xmlns="http://www.w3.org/2000/svg" width="495" height="266" viewBox="0 0 495 266" role="img" aria-label="Opening repertoire">
<rect x="0.5" y="0.5" width="494" height="265" rx="10" fill="#0d1117" stroke="#30363d"/>
<text x="20.0" y="30.0" font-family="'Segoe UI', Ubuntu, 'Helvetica Neue', Helvetica, Arial, sans-serif" font-size="16" font-weight="600" fill="#e6edf3" text-anchor="start">Opening repertoire</text>
<text x="475.0" y="30.0" font-family="'Segoe UI', Ubuntu, 'Helvetica Neue', Helvetica, Arial, sans-serif" font-size="11" font-weight="400" fill="#6e7681" text-anchor="end">chess.com · rated · last 12 months · 2026-09-07</text>
<line x1="20" y1="42" x2="475" y2="42" stroke="#30363d"/>
<text x="20.0" y="64.0" font-family="'Segoe UI', Ubuntu, 'Helvetica Neue', Helvetica, Arial, sans-serif" font-size="10" font-weight="600" fill="#6e7681" text-anchor="start" letter-spacing="1.2">AS WHITE</text>
<text x="20.0" y="80.0" font-family="'Segoe UI', Ubuntu, 'Helvetica Neue', Helvetica, Arial, sans-serif" font-size="11" font-weight="400" fill="#9da7b3" text-anchor="start">French Defense</text>
<text x="223.5" y="80.0" font-family="'SFMono-Regular', Consolas, 'Liberation Mono', Menlo, monospace" font-size="10" font-weight="400" fill="#6e7681" text-anchor="end">54% · 23</text>
<clipPath id="bar-20-85"><rect x="20.0" y="85" width="203.5" height="8" rx="4"/></clipPath><rect x="20.0" y="85" width="203.5" height="8" rx="4" fill="#30363d"/><g clip-path="url(#bar-20-85)"><rect x="20.0" y="85" width="104.1" height="8" fill="#E8567C"/><rect x="126.1" y="85" width="8.7" height="8" fill="#8B949E"/><rect x="136.8" y="85" width="86.7" height="8" fill="#3D8BFF"/></g>
<text x="20.0" y="114.0" font-family="'Segoe UI', Ubuntu, 'Helvetica Neue', Helvetica, Arial, sans-serif" font-size="11" font-weight="400" fill="#9da7b3" text-anchor="start">Sicilian Defense</text>
<text x="223.5" y="114.0" font-family="'SFMono-Regular', Consolas, 'Liberation Mono', Menlo, monospace" font-size="10" font-weight="400" fill="#6e7681" text-anchor="end">39% · 19</text>
<clipPath id="bar-20-119"><rect x="20.0" y="119" width="203.5" height="8" rx="4"/></clipPath><rect x="20.0" y="119" width="203.5" height="8" rx="4" fill="#30363d"/><g clip-path="url(#bar-20-119)"><rect x="20.0" y="119" width="63.0" height="8" fill="#E8567C"/><rect x="85.0" y="119" width="31.5" height="8" fill="#8B949E"/><rect x="118.5" y="119" width="105.0" height="8" fill="#3D8BFF"/></g>
<text x="20.0" y="148.0" font-family="'Segoe UI', Ubuntu, 'Helvetica Neue', Helvetica, Arial, sans-serif" font-size="11" font-weight="400" fill="#9da7b3" text-anchor="start">Caro Kann Defense</text>
<text x="223.5" y="148.0" font-family="'SFMono-Regular', Consolas, 'Liberation Mono', Menlo, monospace" font-size="10" font-weight="400" fill="#6e7681" text-anchor="end">35% · 17</text>
<clipPath id="bar-20-153"><rect x="20.0" y="153" width="203.5" height="8" rx="4"/></clipPath><rect x="20.0" y="153" width="203.5" height="8" rx="4" fill="#30363d"/><g clip-path="url(#bar-20-153)"><rect x="20.0" y="153" width="58.7" height="8" fill="#E8567C"/><rect x="80.7" y="153" width="23.5" height="8" fill="#8B949E"/><rect x="106.1" y="153" width="117.4" height="8" fill="#3D8BFF"/></g>
<text x="20.0" y="182.0" font-family="'Segoe UI', Ubuntu, 'Helvetica Neue', Helvetica, Arial, sans-serif" font-size="11" font-weight="400" fill="#9da7b3" text-anchor="start">Scandinavian Defense</text>
<text x="223.5" y="182.0" font-family="'SFMono-Regular', Consolas, 'Liberation Mono', Menlo, monospace" font-size="10" font-weight="400" fill="#6e7681" text-anchor="end">59% · 17</text>
<clipPath id="bar-20-187"><rect x="20.0" y="187" width="203.5" height="8" rx="4"/></clipPath><rect x="20.0" y="187" width="203.5" height="8" rx="4" fill="#30363d"/><g clip-path="url(#bar-20-187)"><rect x="20.0" y="187" width="105.6" height="8" fill="#E8567C"/><rect x="127.6" y="187" width="23.5" height="8" fill="#8B949E"/><rect x="153.1" y="187" width="70.4" height="8" fill="#3D8BFF"/></g>
<text x="20.0" y="216.0" font-family="'Segoe UI', Ubuntu, 'Helvetica Neue', Helvetica, Arial, sans-serif" font-size="11" font-weight="400" fill="#9da7b3" text-anchor="start">Giuoco Piano Game</text>
<text x="223.5" y="216.0" font-family="'SFMono-Regular', Consolas, 'Liberation Mono', Menlo, monospace" font-size="10" font-weight="400" fill="#6e7681" text-anchor="end">46% · 13</text>
<clipPath id="bar-20-221"><rect x="20.0" y="221" width="203.5" height="8" rx="4"/></clipPath><rect x="20.0" y="221" width="203.5" height="8" rx="4" fill="#30363d"/><g clip-path="url(#bar-20-221)"><rect x="20.0" y="221" width="93.0" height="8" fill="#E8567C"/><rect x="115.0" y="221" width="108.5" height="8" fill="#3D8BFF"/></g>
<text x="247.5" y="64.0" font-family="'Segoe UI', Ubuntu, 'Helvetica Neue', Helvetica, Arial, sans-serif" font-size="10" font-weight="600" fill="#6e7681" text-anchor="start" letter-spacing="1.2">AS BLACK</text>
<text x="247.5" y="80.0" font-family="'Segoe UI', Ubuntu, 'Helvetica Neue', Helvetica, Arial, sans-serif" font-size="11" font-weight="400" fill="#9da7b3" text-anchor="start">Giuoco Piano Game</text>
<text x="451.0" y="80.0" font-family="'SFMono-Regular', Consolas, 'Liberation Mono', Menlo, monospace" font-size="10" font-weight="400" fill="#6e7681" text-anchor="end">57% · 22</text>
<clipPath id="bar-247-85"><rect x="247.5" y="85" width="203.5" height="8" rx="4"/></clipPath><rect x="247.5" y="85" width="203.5" height="8" rx="4" fill="#30363d"/><g clip-path="url(#bar-247-85)"><rect x="247.5" y="85" width="108.8" height="8" fill="#E8567C"/><rect x="358.3" y="85" width="9.1" height="8" fill="#8B949E"/><rect x="369.4" y="85" width="81.6" height="8" fill="#3D8BFF"/></g>
<text x="247.5" y="114.0" font-family="'Segoe UI', Ubuntu, 'Helvetica Neue', Helvetica, Arial, sans-serif" font-size="11" font-weight="400" fill="#9da7b3" text-anchor="start">Nimzowitsch Larsen Attack</text>
<text x="451.0" y="114.0" font-family="'SFMono-Regular', Consolas, 'Liberation Mono', Menlo, monospace" font-size="10" font-weight="400" fill="#6e7681" text-anchor="end">85% · 13</text>
<clipPath id="bar-247-119"><rect x="247.5" y="119" width="203.5" height="8" rx="4"/></clipPath><rect x="247.5" y="119" width="203.5" height="8" rx="4" fill="#30363d"/><g clip-path="url(#bar-247-119)"><rect x="247.5" y="119" width="170.5" height="8" fill="#E8567C"/><rect x="420.0" y="119" width="31.0" height="8" fill="#3D8BFF"/></g>
<text x="247.5" y="148.0" font-family="'Segoe UI', Ubuntu, 'Helvetica Neue', Helvetica, Arial, sans-serif" font-size="11" font-weight="400" fill="#9da7b3" text-anchor="start">Queen's Pawn Opening</text>
<text x="451.0" y="148.0" font-family="'SFMono-Regular', Consolas, 'Liberation Mono', Menlo, monospace" font-size="10" font-weight="400" fill="#6e7681" text-anchor="end">46% · 13</text>
<clipPath id="bar-247-153"><rect x="247.5" y="153" width="203.5" height="8" rx="4"/></clipPath><rect x="247.5" y="153" width="203.5" height="8" rx="4" fill="#30363d"/><g clip-path="url(#bar-247-153)"><rect x="247.5" y="153" width="93.0" height="8" fill="#E8567C"/><rect x="342.5" y="153" width="108.5" height="8" fill="#3D8BFF"/></g>
<text x="247.5" y="182.0" font-family="'Segoe UI', Ubuntu, 'Helvetica Neue', Helvetica, Arial, sans-serif" font-size="11" font-weight="400" fill="#9da7b3" text-anchor="start">Englund Gambit</text>
<text x="451.0" y="182.0" font-family="'SFMono-Regular', Consolas, 'Liberation Mono', Menlo, monospace" font-size="10" font-weight="400" fill="#6e7681" text-anchor="end">38% · 12</text>
<clipPath id="bar-247-187"><rect x="247.5" y="187" width="203.5" height="8" rx="4"/></clipPath><rect x="247.5" y="187" width="203.5" height="8" rx="4" fill="#30363d"/><g clip-path="url(#bar-247-187)"><rect x="247.5" y="187" width="66.5" height="8" fill="#E8567C"/><rect x="316.0" y="187" width="16.6" height="8" fill="#8B949E"/><rect x="334.6" y="187" width="116.4" height="8" fill="#3D8BFF"/></g>
<text x="247.5" y="216.0" font-family="'Segoe UI', Ubuntu, 'Helvetica Neue', Helvetica, Arial, sans-serif" font-size="11" font-weight="400" fill="#9da7b3" text-anchor="start">Scotch Game</text>
<text x="451.0" y="216.0" font-family="'SFMono-Regular', Consolas, 'Liberation Mono', Menlo, monospace" font-size="10" font-weight="400" fill="#6e7681" text-anchor="end">33% · 12</text>
<clipPath id="bar-247-221"><rect x="247.5" y="221" width="203.5" height="8" rx="4"/></clipPath><rect x="247.5" y="221" width="203.5" height="8" rx="4" fill="#30363d"/><g clip-path="url(#bar-247-221)"><rect x="247.5" y="221" width="67.2" height="8" fill="#E8567C"/><rect x="316.7" y="221" width="134.3" height="8" fill="#3D8BFF"/></g>
<rect x="20" y="240" width="10" height="10" rx="2" fill="#E8567C"/>
<text x="35.0" y="249.0" font-family="'Segoe UI', Ubuntu, 'Helvetica Neue', Helvetica, Arial, sans-serif" font-size="10" font-weight="400" fill="#9da7b3" text-anchor="start">Win</text>
<rect x="78" y="240" width="10" height="10" rx="2" fill="#8B949E"/>
<text x="93.0" y="249.0" font-family="'Segoe UI', Ubuntu, 'Helvetica Neue', Helvetica, Arial, sans-serif" font-size="10" font-weight="400" fill="#9da7b3" text-anchor="start">Draw</text>
<rect x="136" y="240" width="10" height="10" rx="2" fill="#3D8BFF"/>
<text x="151.0" y="249.0" font-family="'Segoe UI', Ubuntu, 'Helvetica Neue', Helvetica, Arial, sans-serif" font-size="10" font-weight="400" fill="#9da7b3" text-anchor="start">Loss</text>
<text x="475.0" y="249.0" font-family="'Segoe UI', Ubuntu, 'Helvetica Neue', Helvetica, Arial, sans-serif" font-size="10" font-weight="400" fill="#6e7681" text-anchor="end">score % · games</text>
</svg>
